<svg xmlns="http://www.w3.org/2000/svg" fill="none" viewBox="0 0 200 200" height="200" width="200">
  <g id="avatar-37--user-profile-avatar-lifestyle-character">
    <path id="Vector" fill="#D6E2FF" d="M195 99.9997c0 8.6373 -1.153 16.9973 -3.316 24.9453 -6.766 24.954 -23.448 45.82 -45.557 58.125 -6.183 3.442 -12.799 6.219 -19.737 8.21 -7.814 2.26 -16.039 3.54 -24.534 3.705 -0.614 0.007 -1.235 0.015 -1.856 0.015 -0.6212 0 -1.2424 -0.008 -1.8636 -0.015 -36.9507 -0.711 -68.7296 -22.506 -83.7958 -53.858C8.35303 128.68 5 114.737 5 99.9997 5 47.5338 47.5266 4.99976 100 4.99976c52.473 0 95 42.53404 95 94.99994" stroke-width="1"></path>
    <path id="Vector_2" fill="#1C1631" d="M191.684 124.945C180.735 165.317 143.836 195 100 195c-37.744 0 -70.3388 -21.997 -85.6594 -53.873l5.1418 -18.554s27.8646 -17.708 36.8159 -21.922c8.9514 -4.2063 29.1445 -10.1265 29.1445 -10.1265s4.9472 -6.3094 7.4395 -6.983 27.7677 -3.0237 27.7677 -3.0237 3.585 0.1572 7.709 6.0924c0 0 43.372 9.4079 52.286 20.8738 3.443 4.431 7.439 11.032 11.039 17.461" stroke-width="1"></path>
    <path id="Vector_3" fill="#504A6D" d="m106.01 194.813 -1.13 0.067c6.683 -8.981 30.521 -66.432 32.378 -70.78l-12.11 -9.55 2.11 -0.397c3.428 -0.621 9.124 -1.864 9.827 -2.567 0.375 -1.22 -5.134 -16.3686 -8.726 -24.9608l0.538 0.1198c3.675 8.7867 9.79 24.302 8.72 25.372 -0.943 0.943 -7.125 2.193 -9.438 2.635l10.68 8.929 -0.112 0.254c-1.07 2.522 -25.769 61.537 -32.737 70.893z" stroke-width="1"></path>
    <path id="Vector_4" fill="#504A6D" d="m163.955 170.249 -3.952 -31.734 1.781 -0.172 2.956 31.187z" stroke-width="1"></path>
    <path id="Vector_5" fill="#504A6D" d="m47.7362 179.35 -0.756 -0.539 6.2645 -46.86 -5.516 -1.445 0.1871 -0.725 6.7659 1.437z" stroke-width="1"></path>
    <path id="Vector_6" fill="#504A6D" d="M50.1162 159.651c-11.6458 -1.729 -30.8134 -10.344 -31.0005 -10.426l0.2844 -0.689c0.1871 0.083 19.1601 7.926 30.7161 9.64z" stroke-width="1"></path>
    <path id="Vector_7" fill="#504A6D" d="m95.689 177.164 -20.7469 -49.345 10.83 -9.737c-2.1106 -0.344 -7.8812 -1.295 -9.4155 -1.684 -0.1721 -0.045 -0.3143 -0.157 -0.3966 -0.329 -1.0254 -2.051 6.9979 -21.1513 8.6146 -24.9608l0.6885 0.2918c-4.6553 10.957 -8.4275 22.468 -7.9634 23.823 1.9609 0.472 9.2807 2.23 9.3555 2.245l0.7709 0.128 -10.7177 10.485L96.37 176.872l-0.6885 0.292z" stroke-width="1"></path>
    <path id="Vector_8" fill="#F28E6B" d="M120.313 54.0303c0.179 10.7626 0.179 21.8396 -0.053 33.2009 -0.127 6.2046 -0.314 12.3194 -0.561 18.3368 -9.356 0.427 -18.711 0.853 -28.0591 1.272l1.2424 -25.7011C75.7354 86.0711 70.6385 77.741 68.8572 69.321c-1.7813 -8.4125 2.672 -27.7523 2.672 -27.7523s-0.7859 -1.0254 -0.958 -3.0387c-0.1722 -2.0133 1.9309 -3.7647 1.9309 -3.7647 0.247 -23.1569 32.0339 -33.807207 46.7629 -20.9489 14.722 12.8657 1.048 40.2139 1.048 40.2139" stroke-width="1"></path>
    <path id="Vector_9" fill="#1D1730" d="M80.3908 37.3176c0 2.1555 -2.2005 5.0295 -8.8616 4.2511 0 0 -0.7859 -1.0253 -0.958 -3.0386 -0.1722 -2.0134 1.931 -3.7647 1.931 -3.7647s7.8886 0.4041 7.8886 2.5522" stroke-width="1"></path>
    <path id="Vector_10" fill="#1D1730" d="M87.6806 38.2383c-0.1797 -4.9547 7.694 -4.6702 9.3181 -4.558 1.6241 0.1123 5.1563 1.3846 5.1563 3.2558 0 1.8711 -2.7089 3.2557 -6.4661 3.4802s-7.8961 0.8308 -8.0083 -2.1854z" stroke-width="1"></path>
    <path id="Vector_11" fill="#4D1D12" d="M75.2789 48.1625c-2.2753 0 -3.368 -1.0029 -3.4354 -1.0628l0.5164 -0.5463c0.0898 0.0823 2.1855 1.9459 6.9456 -0.0749l0.2919 0.6886c-1.7514 0.7409 -3.1809 0.9879 -4.3185 0.9879z" stroke-width="1"></path>
    <path id="Vector_12" fill="#4D1D12" d="M92.8 46.6285c-2.5373 0 -4.0267 -1.0927 -4.124 -1.1676l0.4491 -0.5987c0.1422 0.1048 3.5401 2.5597 9.0337 -0.5763l0.3742 0.6511c-2.2528 1.2874 -4.1838 1.6915 -5.733 1.6915" stroke-width="1"></path>
    <path id="Vector_13" fill="#4D1D12" d="M82.0823 57.3611c-2.3801 0 -4.124 -1.0328 -4.1539 -1.0478l0.3892 -0.6362c0.1721 0.1048 4.2063 2.4774 8.3077 -0.6437l0.4566 0.5988c-1.7439 1.3248 -3.4953 1.7289 -4.9996 1.7289" stroke-width="1"></path>
    <path id="Vector_14" fill="#4D1D12" d="M82.4564 65.0476c-0.2619 0 -0.4341 0 -0.479 -0.0075l0.0374 -0.7484c0.0973 0 9.393 0.3517 12.1248 -5.8005l0.6811 0.3069c-2.6046 5.8603 -10.3435 6.2495 -12.3643 6.2495" stroke-width="1"></path>
    <path id="Vector_15" fill="#4D1D12" d="m113.48 59.2618 -0.33 -0.6736c0.083 -0.0374 8.293 -4.1314 8.188 -11.279 -0.052 -3.6524 -1.025 -6.0923 -2.904 -7.2599 -3.038 -1.8936 -7.514 0.1871 -7.559 0.2096l-0.322 -0.6736c0.195 -0.0973 4.887 -2.2753 8.27 -0.1722 2.104 1.3098 3.196 3.9593 3.256 7.8886 0.112 7.6267 -8.255 11.788 -8.607 11.9601z" stroke-width="1"></path>
    <path id="Vector_16" fill="#4D1D12" d="m117.768 50.7297 -0.726 -0.1871c1.272 -4.9322 -1.422 -6.0324 -1.534 -6.0773l0.262 -0.7036c0.142 0.0524 3.45 1.3397 1.998 6.9605z" stroke-width="1"></path>
    <path id="Vector_17" fill="#4D1D12" d="m92.8299 82.0372 0.0524 -0.8982c9.8717 -4.7676 10.9647 -9.4902 10.9797 -9.5277l0.726 0.1871c-0.045 0.1946 -3.158 8.2105 -11.7581 10.2388" stroke-width="1"></path>
    <path id="Vector_18" fill="#FFFDFF" d="M120.29 87.8528s-0.075 31.6072 -4.655 49.7262c-3.652 14.49 -10.987 45.528 -13.779 57.406 -0.614 0.008 -1.235 0.015 -1.856 0.015 -0.6212 0 -1.2424 -0.007 -1.8636 -0.015 -1.2649 -10.493 -8.0159 -67.008 -7.1926 -77.524 0.9056 -11.601 1.4071 -26.9288 1.4071 -26.9288l7.9411 7.4695s1.976 0.8981 3.929 0c0 0 10.314 -2.3352 16.069 -10.1489" stroke-width="1"></path>
    <path id="Vector_19" fill="#1C172A" d="M97.3505 101.28 100 105.299l-5.5161 32.22 7.8591 55.378 9.101 -38.216 -3.398 -30.29 -4.843 -19.392 2.567 -3.719 -1.698 -3.3759s-2.65 1.2499 -3.847 0z" stroke-width="1"></path>
    <path id="Vector_20" fill="#000000" d="M112.417 109.086c-2.919 0 -6.789 -6.339 -7.155 -7.065l0.509 -0.741c0.987 1.953 4.902 7.604 6.997 7.013 2.695 -0.756 8.144 -7.792 8.196 -7.866l0.591 0.456c-0.232 0.299 -5.658 7.305 -8.592 8.128 -0.18 0.053 -0.367 0.075 -0.546 0.075" stroke-width="1"></path>
    <path id="Vector_21" fill="#000000" d="M91.8345 106.856c-0.1123 0 -0.1871 -0.008 -0.1946 -0.015l0.1048 -0.741s0.8158 0.097 1.5118 -0.719c0.8533 -1.003 3.9668 -3.981 4.094 -4.101l0.4266 0.643s-3.121 2.972 -3.9443 3.945c-0.7484 0.875 -1.6091 0.988 -1.9908 0.988z" stroke-width="1"></path>
    <path id="Vector_22" fill="#FEB94D" d="M95.7413 57.6004c-5.5384 0 -10.0366 -4.5057 -10.0366 -10.0367s4.5056 -10.0366 10.0366 -10.0366c5.5307 0 10.0367 4.5056 10.0367 10.0366s-4.506 10.0367 -10.0367 10.0367m0 -18.8833c-4.8723 0 -8.8391 3.9668 -8.8391 8.8391 0 4.8724 3.9668 8.8392 8.8391 8.8392 4.8727 0 8.8387 -3.9668 8.8387 -8.8392 0 -4.8723 -3.966 -8.8391 -8.8387 -8.8391" stroke-width="1"></path>
    <path id="Vector_23" fill="#FEB94D" d="M70.9529 58.1018c-5.5385 0 -10.0366 -4.5056 -10.0366 -10.0366s4.5056 -10.0366 10.0366 -10.0366 10.0366 4.5056 10.0366 10.0366 -4.5056 10.0366 -10.0366 10.0366m0 -18.8832c-4.8724 0 -8.8391 3.9667 -8.8391 8.8391s3.9667 8.8391 8.8391 8.8391 8.8391 -3.9667 8.8391 -8.8391 -3.9667 -8.8391 -8.8391 -8.8391" stroke-width="1"></path>
    <path id="Vector_24" fill="#FEB94D" d="M86.1089 45.6479h-5.4562v1.1976h5.4562z" stroke-width="1"></path>
    <path id="Vector_25" fill="#F38E62" d="M54.779 98.5702c-1.8561 6.7058 -4.7901 18.0598 -4.7901 18.0598l0.8608 0.502 -2.7843 13.359 -27.5876 -7.559 3.3755 -12.776 1.5493 -10.6802S1.6694 72.1801 6.78127 66.8886c2.46238 -2.2079 5.53853 0.3368 7.20003 2.1181 -1.9834 -2.5447 -5.4337 -7.8362 -2.178 -10.366 4.3784 -3.3904 15.6051 11.7132 15.6051 11.7132s2.1929 -6.5339 9.4977 -8.6969c7.2974 -2.1631 13.4346 -1.0479 14.7145 4.2436 0 0 -4.0416 -0.1272 -5.4487 2.919 0 0 -3.1061 0.3368 -3.9593 2.4623 0 0 -5.8828 1.7589 -5.0295 7.0579 0.8532 5.2915 7.0054 3.6374 7.0054 3.6374s0.8907 -4.1838 0.7859 -6.1073c0 0 1.9085 -0.5089 2.9039 -0.7933 0 0 3.368 -0.9581 6.9007 -1.4445 0 0 1.8636 18.232 0 24.9381" stroke-width="1"></path>
    <path id="Vector_26" fill="#FFFDFF" d="m50.8497 117.132 -2.7842 13.359 -27.5877 -7.559 3.3755 -12.776 26.1357 6.474z" stroke-width="1"></path>
    <path id="Vector_27" fill="#F28E64" d="M83.2423 131.188c-2.148 1.145 -1.6466 5.575 0 6.294 1.6466 0.718 6.2345 0 6.2345 0s-2.2303 5.546 2.8965 6.571c0 0 -5.9726 4.768 -4.4083 8.33 1.5717 3.563 7.7239 1.632 12.911 -2.776 0 0 -9.1763 16.114 -2.837 15.208 6.339 -0.905 8.33 -4.708 8.33 -4.708s-3.562 16.84 17.199 27.214l10.741 -25.41 -4.588 -2.657s-5.127 -26.667 -11.287 -30.05c-6.152 -3.383 -13.816 -5.007 -19.3696 -3.503 -5.5534 1.512 -15.8296 5.479 -15.8296 5.479z" stroke-width="1"></path>
    <path id="Vector_28" fill="#4D1D12" d="m25.4998 89.3494 -0.7334 -0.1497c0.0673 -0.3293 1.6765 -7.9634 7.4619 -11.4662l-4.8274 -7.3796 0.5763 -1.2948 5.3439 8.9065 -0.3668 0.202c-5.778 3.2333 -7.4395 11.0995 -7.462 11.1743z" stroke-width="1"></path>
    <path id="Vector_29" fill="#4D1D12" d="m26.7124 84.4847 -12.7311 -15.403v-0.0749l13.2999 14.0184z" stroke-width="1"></path>
    <path id="Vector_30" fill="#4D1D12" d="M43.1632 93.7576c-0.015 -0.3742 -0.1871 -8.5023 1.0253 -11.7805l0.5165 -2.4549c-0.277 3.5327 -0.4341 14.3477 -0.4341 14.4375z" stroke-width="1"></path>
    <path id="Vector_31" fill="#4D1D12" d="m92.3659 144.053 -0.5913 -0.15 9.7824 -10.71 0.569 0.479z" stroke-width="1"></path>
    <path id="Vector_32" fill="#4D1D12" d="m89.3271 137.916 0.1497 -0.434c0.2096 -0.075 5.4786 -2.507 9.1909 -1.018l-0.2769 0.696c-3.4503 -1.377 -9.0113 0.741 -9.0562 0.756z" stroke-width="1"></path>
    <path id="Vector_33" fill="#4D1D12" d="m100.389 150.482 0.487 -0.875 5.987 -8.024 0.584 0.472z" stroke-width="1"></path>
    <path id="Vector_34" fill="#4D1D12" d="m106.235 161.028 0.134 -0.92 3.96 -7.373 0.643 0.382z" stroke-width="1"></path>
    <path id="Vector_35" fill="#FFFDFF" d="m151.051 169.276 -4.924 13.794c-6.183 3.442 -12.799 6.219 -19.737 8.21l-3.772 -2.013 11.691 -27.356z" stroke-width="1"></path>
    <path id="Vector_36" fill="#504A6D" d="m159.853 173.774 -9.176 -3.458 0.374 -1.04 9.655 3.802z" stroke-width="1"></path>
    <path id="Vector_37" fill="#FEB94D" d="M58.8431 70.264s-1.1152 2.9414 -4.7152 3.4953c-3.6075 0.5538 -9.1535 2.1106 -9.1535 2.1106s-2.2004 -0.1722 -2.8441 -1.8337c-0.1721 -0.4566 -0.232 -1.0179 -0.0973 -1.7214 0 0 0.1123 -3.7123 4.2138 -3.7123 0 0 1.9983 -3.7198 6.3842 -2.4998 0 0 2.7169 -3.9294 5.0969 -0.247 0 0 2.6645 2.7992 1.1152 4.4083" stroke-width="1"></path>
    <path id="Vector_38" fill="#E1533B" d="M54.6817 70.0773c-1.2199 0.4116 -4.4382 1.2948 -5.995 2.133 -1.5493 0.8308 -6.4216 2.2379 -6.5414 1.8412 0 -0.0075 -0.015 -0.015 -0.015 -0.015 -0.1721 -0.4565 -0.232 -1.0179 -0.0973 -1.7214 0 0 11.4812 -4.8798 13.4271 -4.1613 0 0 0.4416 1.5118 -0.7784 1.9235" stroke-width="1"></path>
    <path id="Vector_39" fill="#518572" d="M50.3257 71.6563s3.4279 2.4624 5.2092 1.5568c1.7813 -0.9057 1.2499 -3.136 1.2499 -3.136s2.8366 0.1796 3.4129 -1.3472 -0.2694 -3.1659 -0.8757 -3.1659c-0.6062 0 -3.8694 2.5896 -3.8694 2.5896s0.6212 1.4594 -1.452 2.1405c-2.2753 0.741 -3.7123 0.8233 -3.6749 1.3622" stroke-width="1"></path>
  </g>
</svg>