<svg xmlns="http://www.w3.org/2000/svg" fill="none" viewBox="0 0 200 200" height="200" width="200">
  <g id="avatar-35--user-profile-avatar-lifestyle-character">
    <path id="Vector" fill="#FEE5D6" d="M191.723 103.277c0 16.454 -4.336 31.897 -11.923 45.251 -6.62 11.641 -15.71 21.7 -26.557 29.447 -12.696 9.061 -27.807 14.972 -44.174 16.577 -2.984 0.296 -6.012 0.448 -9.069 0.448h-0.2602c-2.8399 -0.007 -5.6581 -0.145 -8.433 -0.412 -2.6159 -0.246 -5.2029 -0.6 -7.7538 -1.062 -3.1 -0.557 -6.1423 -1.272 -9.1267 -2.139 -3.4108 -0.983 -6.7421 -2.168 -9.9723 -3.527 -4.2346 -1.785 -8.3102 -3.873 -12.1979 -6.251 -10.6009 -6.474 -19.7855 -15.045 -26.9756 -25.125 -10.7021 -15.009 -17.0034 -33.371 -17.0034 -53.207 0 -50.6562 41.0668 -91.723 91.7229 -91.723 50.656 0 91.723 41.0668 91.723 91.723" stroke-width="1"></path>
    <path id="Vector_2" fill="#FEB246" d="m71.319 67.7238 -0.6142 0.0289c-2.8616 0.1228 -5.1018 2.5147 -5.0295 5.3835l0.3035 12.1691c0.0578 2.2401 1.8933 4.0322 4.1334 4.0322h0.766c2.7965 0 5.0511 -2.2979 4.9933 -5.0945l-0.2673 -13.607c-0.0289 -1.6187 -1.3586 -2.9194 -2.9773 -2.9194h-1.3151z" stroke-width="1"></path>
    <path id="Vector_3" fill="#421E18" d="M111.049 34.3384c7.946 0 14.388 -6.5677 14.388 -14.6693 0 -8.1017 -6.442 -14.66934 -14.388 -14.66934S96.6616 11.5674 96.6616 19.6691c0 8.1016 6.4414 14.6693 14.3874 14.6693" stroke-width="1"></path>
    <path id="Vector_4" fill="#41846A" d="M179.8 148.528c-6.62 11.641 -15.71 21.7 -26.557 29.447 -12.696 9.062 -27.807 14.973 -44.174 16.577 -2.984 0.296 -6.012 0.448 -9.069 0.448h-0.2601c-17.3936 -0.051 -33.6455 -4.936 -47.4838 -13.39 -10.6009 -6.475 -19.7855 -15.045 -26.9756 -25.126 4.3864 -14.077 18.1307 -35.871 18.1307 -35.871 1.2863 -7.971 35.2786 -21.2237 35.2786 -21.2237s2.7171 -2.1968 3.8227 -3.9311c1.0984 -1.7343 3.4325 -2.0016 3.4325 -2.0016l-0.2891 -7.0673c-35.0257 6.1134 -20.2335 -34.2597 -17.6537 -48.864 2.5725 -14.6042 17.9572 -28.42084 37.8868 -20.9055 25.242 9.5169 7.357 46.2191 6.612 47.5849 -0.686 1.2573 2.074 22.6182 2.508 25.9206 0.029 0.2746 0.051 0.4263 0.051 0.4263 5.159 -1.5681 8.194 6.6265 8.194 6.6265l35.813 17.2999c14.106 4.632 20.733 34.05 20.733 34.05" stroke-width="1"></path>
    <path id="Vector_5" fill="#FFFEFF" d="m54.3084 151.888 -2.0523 29.721c-10.6009 -6.474 -19.7855 -15.045 -26.9756 -25.125 4.3864 -14.077 18.1307 -35.871 18.1307 -35.871s9.6543 21.295 10.8972 31.275" stroke-width="1"></path>
    <path id="Vector_6" fill="#FFFEFF" d="M179.799 148.528c-6.619 11.641 -15.709 21.7 -26.556 29.447 -2.443 1.742 -4.979 3.375 -7.595 4.87 -7.804 4.488 -16.338 7.863 -25.371 9.893 -3.657 0.831 -7.4 1.438 -11.208 1.814 -2.985 0.296 -6.012 0.448 -9.0691 0.448h-0.2602l-5.0511 -80.797s-11.432 -7.941 -16.7072 -14.539c0.4553 -0.1734 0.7082 -0.2746 0.7082 -0.2746s2.7171 -2.1968 3.8227 -3.9311c1.0984 -1.7343 3.4325 -2.0016 3.4325 -2.0016l12.1835 6.9013 16.9307 -9.8063c5.16 -1.5681 8.195 6.6265 8.195 6.6265l35.813 17.2998c14.106 4.632 20.732 34.05 20.732 34.05" stroke-width="1"></path>
    <path id="Vector_7" fill="#41856B" d="m147.657 135.369 5.586 42.606c-12.696 9.061 -27.807 14.973 -44.174 16.577l-5.918 -80.746c14.445 -6.656 20.103 -16.628 20.103 -16.628l35.813 17.3c-5.398 5.658 -11.41 20.891 -11.41 20.891" stroke-width="1"></path>
    <path id="Vector_8" fill="#A04731" d="m115.059 90.5516 -16.9306 9.8064 -12.1835 -6.9014 -0.2891 -7.0673c-35.0256 6.1134 -20.2335 -34.2597 -17.6537 -48.864 2.5725 -14.6042 17.9572 -28.42084 37.8869 -20.9055 25.242 9.5169 7.357 46.2191 6.612 47.5849 -0.686 1.2573 2.125 23.0445 2.558 26.3469" stroke-width="1"></path>
    <path id="Vector_9" fill="#000000" d="M104.394 194.891c-1.077 -13.173 -6.5691 -93.702 -6.6269 -94.512l0.7226 -0.05c0.0578 0.809 5.7163 81.346 6.7853 94.512l-0.889 0.043z" stroke-width="1"></path>
    <path id="Vector_10" fill="#000000" d="M148.842 145.341c-0.462 -8.513 13.932 -26.802 14.547 -27.576l0.571 0.448c-0.152 0.188 -15.233 20.451 -14.793 28.689z" stroke-width="1"></path>
    <path id="Vector_11" fill="#000000" d="M53.5495 162.807c-2.7099 -9.842 -13.9756 -35.149 -14.0912 -35.394l0.6575 -0.304c0.1084 0.239 10.8828 23.261 13.6071 33.169z" stroke-width="1"></path>
    <path id="Vector_12" fill="#ffffff" d="M90.6853 173.928c0.159 -6.857 -1.3513 -26.657 -3.2735 -31.904 -1.9221 -5.246 -7.219 -5.817 -9.871 -5.456 -2.6521 0.369 -11.9595 2.898 -11.9595 2.898 -2.3485 1.034 -5.3546 4.611 -4.6031 11.642 0.542 5.08 2.4569 25.675 3.4758 36.752 3.2301 1.359 6.5615 2.544 9.9722 3.527 -0.1589 -3.303 -0.3396 -7.125 -0.3685 -8.108 -0.0506 -1.821 -0.3613 -4.625 1.5609 -4.986 1.9222 -0.369 3.5842 -0.369 4.4658 -0.26 0.8888 0.101 2.5509 0.621 2.7026 3.064 0.1084 1.705 0.5275 8.498 0.766 12.429 2.5509 0.462 5.1379 0.816 7.7538 1.062 -0.2313 -4.502 -0.7443 -15.312 -0.6215 -20.66m-14.5464 -7.371c-4.2129 0.217 -4.885 -4.22 -4.9356 -5.773 -0.0505 -1.561 -0.3107 -6.186 -0.4191 -8.267 -0.1012 -2.074 0.4697 -3.324 1.3007 -3.686 0 0 2.3919 -0.99 4.885 -0.672 2.493 0.311 2.5942 7.891 2.652 9.814 0.0506 1.922 0.7226 8.368 -3.483 8.584" stroke-width="1"></path>
    <path id="Vector_13" fill="#ffffff" d="M143.596 162.857c-0.289 -1.452 -1.742 -4.212 -5.557 -3.851s-10.319 1.38 -10.717 -3.05c-0.397 -4.429 -0.397 -6.106 -0.614 -8.902 -0.224 -2.797 -0.874 -4.936 1.084 -5.377 1.966 -0.433 3.382 -0.614 4.213 -0.072 0.838 0.549 1.64 2.833 1.749 6.106 0.108 3.267 -0.296 7.956 3.736 7.552 4.032 -0.398 4.032 -5.044 3.237 -10.565 -0.802 -5.528 -0.802 -11.952 -5.051 -12.357 -4.249 -0.397 -10.5 0.73 -10.5 0.73 -3.411 0.47 -8.895 1.886 -8.389 8.606 0.513 6.721 2.363 31.644 2.471 35.452 0.094 3.382 0.853 13.376 1.019 15.609 9.033 -2.031 17.567 -5.405 25.371 -9.893 -0.441 -4.574 -1.806 -18.774 -2.052 -19.988m-6.236 16.961c-0.044 1.264 -0.477 2.5 -3.1 2.854 -4.842 0.751 -5.355 -3.411 -5.369 -4.488 -0.015 -1.069 -0.383 -7.219 -0.383 -9.56s0.556 -2.977 1.466 -3.295c0 0 2.624 -0.116 4.206 0 1.59 0.123 2.11 2.739 2.11 3.136s1.106 10.081 1.07 11.353" stroke-width="1"></path>
    <path id="Vector_14" fill="#1E0601" d="m112.718 64.378 -0.636 -0.3469c0.109 -0.2023 10.688 -21.1296 5.261 -35.7483 -1.987 -5.3402 -5.911 -9.1557 -11.685 -11.3308 -10.6947 -4.0322 -18.8315 -1.5175 -23.7742 1.3008 -7.0095 3.9961 -12.2269 11.403 -13.6287 19.3302l-0.7082 -0.1228c1.4308 -8.1368 6.7927 -15.7388 13.9828 -19.8361 5.08 -2.8905 13.8961 -6.4458 24.8513 -2.3124 5.969 2.2546 9.979 6.4603 12.039 12.0028 5.535 14.9005 -5.579 36.8539 -5.695 37.0562z" stroke-width="1"></path>
    <path id="Vector_15" fill="#431D17" d="M87.9393 14.1773c-4.9355 -1.1996 -10.9333 4.6826 -13.0795 7.8116 -2.1462 3.1217 -2.4714 7.8766 1.0406 7.5514s7.0311 -6.0556 8.3319 -7.0962c1.3007 -1.0406 8.3029 -7.1468 3.707 -8.2668" stroke-width="1"></path>
    <path id="Vector_16" fill="#431D17" d="M98.2223 14.9721c-5.2968 -1.0262 -7.0961 1.4886 -10.0878 6.3013s-3.3819 9.2424 -1.4308 9.5025 16.4183 -14.756 16.4183 -14.756 -3.3677 -0.7443 -4.8997 -1.0478" stroke-width="1"></path>
    <path id="Vector_17" fill="#431D17" d="M105.658 16.9521S90.324 29.6559 93.7565 34.1506c3.4325 4.4948 18.9685 -12.9855 18.9685 -12.9855s-2.97 -3.447 -7.067 -4.213" stroke-width="1"></path>
    <path id="Vector_18" fill="#431D17" d="M115.168 24.1279S100 32.5754 101.554 39.7294c1.084 5.0006 18.571 0.8238 16.909 -7.6454 -0.997 -5.0872 -3.295 -7.9561 -3.295 -7.9561" stroke-width="1"></path>
    <path id="Vector_19" fill="#431D17" d="M103.888 50.9806c-0.101 -5.0367 2.746 -7.508 6.251 -9.0328 3.512 -1.532 8.613 -2.9194 9.43 -0.6287 0.816 2.2908 -4.936 21.1585 -6.749 23.3481l0.549 12.1112 -10.225 -4.3141 2.782 -7.7249s6.843 -1.8354 6.843 -8.6426c0 -6.8071 -8.881 -5.1162 -8.881 -5.1162" stroke-width="1"></path>
    <path id="Vector_20" fill="#000000" d="m79.6437 27.5169 -0.925 0.7588c1.5392 -6.1568 -0.8382 -9.6832 -0.8671 -9.7049l0.4986 -0.5203c0.1228 0.1157 2.9266 2.9122 1.2862 9.4664z" stroke-width="1"></path>
    <path id="Vector_21" fill="#000000" d="m80.099 21.519 -0.6071 -0.3902c1.8933 -2.9845 7.9417 -2.045 8.1802 -2.0017l-0.7443 0.831c-0.0506 -0.0072 -5.1885 -1.0116 -6.8216 1.5609z" stroke-width="1"></path>
    <path id="Vector_22" fill="#000000" d="m94.1178 24.9154 -0.7805 0.7226c0.4047 -5.5931 -2.7026 -7.7827 -2.8327 -7.8405l0.5131 -0.6359c0.1517 0.0651 3.5409 1.6259 3.1001 7.761z" stroke-width="1"></path>
    <path id="Vector_23" fill="#000000" d="m93.5397 20.4061 -0.5492 -0.4697c2.6087 -3.0856 8.6135 -2.7026 8.8305 -2.6737l-0.976 0.9972c-0.05 0 -4.9496 -0.6431 -7.2981 2.1462z" stroke-width="1"></path>
    <path id="Vector_24" fill="#000000" d="m102.363 31.1154 -1.113 0.8671c0.882 -5.3402 -1.4307 -9.488 -1.4524 -9.5242l0.5994 -0.607c0.102 0.1807 2.898 3.6854 1.973 9.2713z" stroke-width="1"></path>
    <path id="Vector_25" fill="#000000" d="m101.705 25.7825 -0.527 -0.4913c1.604 -1.7127 7.971 -1.0984 8.628 -1.0334l-0.903 0.9105c-1.677 -0.1662 -6.041 -0.6142 -7.19 0.6142z" stroke-width="1"></path>
    <path id="Vector_26" fill="#000000" d="m108.968 40.8782 -0.968 0.2746c4.241 -9.3364 0.787 -12.5809 0.751 -12.6099l0.65 -0.5058c0.159 0.1373 4.062 2.9555 -0.433 12.8483z" stroke-width="1"></path>
    <path id="Vector_27" fill="#000000" d="M117.748 36.1449c-0.094 -0.159 -2.739 -4.4514 -7.082 -2.3775l-0.311 -0.6503c4.943 -2.363 7.819 2.0522 7.848 2.0956l-0.448 0.9322z" stroke-width="1"></path>
    <path id="Vector_28" fill="#000000" d="M112.552 53.7194c-0.311 0 -0.26 -0.065 -0.267 -0.065l-0.123 -0.2168 -0.282 -0.448c3.584 -5.0151 1.893 -12.263 1.879 -12.3353l0.918 -0.2312c0.065 0.2963 1.387 7.3563 -1.915 12.5737 1.113 -0.0289 3.967 -0.8094 5.477 -3.7215l-0.253 0.9611c-1.763 3.3963 -4.263 3.4758 -5.434 3.4758z" stroke-width="1"></path>
    <path id="Vector_29" fill="#431D17" d="M83.2422 47.5191c0.6142 4.3719 6.5108 2.4136 9.3941 0.9973 2.8833 -1.4164 5.4631 -5.6148 3.6782 -7.2913 -1.7849 -1.6838 -13.7516 1.4163 -13.0723 6.294" stroke-width="1"></path>
    <path id="Vector_30" fill="#431D17" d="M68.3344 36.3906s4.4803 4.9861 4.9138 6.5109c0.4408 1.5247 1.2068 6.1423 -2.4569 5.5136s-5.8171 -3.7287 -5.8171 -4.567c0 -0.8382 -0.6793 -6.1929 3.3602 -7.4575" stroke-width="1"></path>
    <path id="Vector_31" fill="#000000" d="m82.5269 58.9872 -0.5203 -0.5058c0.0795 -0.0795 1.9728 -2.0234 5.0728 -3.736 1.9583 -1.0839 3.9456 -1.8282 5.9039 -2.204 0.7732 -0.1518 1.5536 -0.2529 2.3196 -0.2963l0.0361 0.7226c-0.7298 0.0434 -1.4741 0.1373 -2.2184 0.2819 -1.8789 0.3685 -3.7938 1.0839 -5.6943 2.1317 -2.9989 1.6548 -4.885 3.5842 -4.8994 3.6059" stroke-width="1"></path>
    <path id="Vector_32" fill="#000000" d="M73.4001 55.5403c-0.4914 -0.3974 -0.9973 -0.7732 -1.5464 -1.1417 -1.6187 -1.084 -3.223 -1.8066 -4.7621 -2.1679 -1.4308 -0.3252 -2.2908 -0.2023 -2.298 -0.1951l-0.1156 -0.7154c0.0433 0 0.99 -0.1517 2.5725 0.2096 1.6332 0.3757 3.3169 1.1417 5.0078 2.269 0.5709 0.383 1.0912 0.766 1.6043 1.1851l-0.4553 0.5637z" stroke-width="1"></path>
    <path id="Vector_33" fill="#000000" d="M76.7098 68.1861c-0.5059 0 -0.9972 -0.0723 -1.467 -0.2096 -2.0233 -0.5997 -2.8688 -2.269 -2.9049 -2.3413l0.6503 -0.3251s0.7588 1.4669 2.4787 1.9727c1.4958 0.4336 3.2807 0.0506 5.2968 -1.1562l0.3685 0.6215c-1.597 0.9539 -3.0783 1.4308 -4.4152 1.4308z" stroke-width="1"></path>
    <path id="Vector_34" fill="#71221E" d="M75.8498 74.5889c0.8094 -0.6938 2.3992 -4.2997 4.6971 -4.0901 0 0 0.7877 -0.9683 2.6665 -0.607s4.7187 2.3919 5.7882 2.3052c1.0767 -0.0868 -1.0406 1.3151 -1.5392 1.8499 -0.4986 0.5347 -1.9727 3.1217 -4.249 3.6926s-4.6754 -1.5753 -4.6754 -1.5753 -4.4441 -0.0723 -2.6882 -1.5753" stroke-width="1"></path>
    <path id="Vector_35" fill="#1D1839" d="M93.5109 54.5432c0 1.7415 -1.4091 3.1579 -3.1507 3.1579 -1.5608 0 -2.8616 -1.1418 -3.1073 -2.6304 1.6332 -0.9033 3.5987 -1.7415 5.7955 -2.1679 0.2963 0.477 0.4625 1.0334 0.4625 1.6404" stroke-width="1"></path>
    <path id="Vector_36" fill="#1D1839" d="M72.0561 54.1023c-0.1807 1.3657 -1.3586 2.4208 -2.7749 2.4208 -1.5464 0 -2.7966 -1.2574 -2.7966 -2.7966 0 -0.7082 0.2602 -1.3513 0.6865 -1.8427 1.2502 0.289 2.9267 0.9105 4.885 2.2185" stroke-width="1"></path>
    <path id="Vector_37" fill="#000000" d="m76.4279 75.6293 -0.2963 0 0.0144 -0.7226c0.0795 0 8.4114 0.1373 13.7299 -3.0639l0.3758 0.6214c-4.9789 3.0062 -12.2413 3.1724 -13.8166 3.1724z" stroke-width="1"></path>
    <path id="Vector_38" fill="#000000" d="m85.75 88.7088 -0.094 -2.3196c0.0578 -0.0217 8.4114 -2.2979 10.1457 -8.1006l0.5347 0.4914c-1.98 5.846 -10.3335 9.8349 -10.5864 9.9361z" stroke-width="1"></path>
    <path id="Vector_39" fill="#FEB246" d="m106.179 63.0048 -0.615 0.0289c-2.861 0.1228 -5.101 2.522 -5.029 5.3836l0.303 12.169c0.058 2.2401 1.894 4.0322 4.134 4.0322h0.766c2.796 0 5.051 -2.2979 4.993 -5.0945l-0.267 -13.607c-0.029 -1.6187 -1.359 -2.9194 -2.977 -2.9194h-1.316z" stroke-width="1"></path>
    <path id="Vector_40" fill="#000000" d="m108.238 61.437 -0.376 -0.6142c2.985 -1.8138 1.048 -5.5931 0.961 -5.7521l0.644 -0.3324c0.021 0.0433 2.326 4.5453 -1.229 6.7059z" stroke-width="1"></path>
  </g>
</svg>