<svg xmlns="http://www.w3.org/2000/svg" fill="none" viewBox="0 0 200 200" height="200" width="200">
  <g id="avatar-28--user-profile-avatar-lifestyle-character">
    <path id="Vector" fill="#FFE6D7" d="M195 100c0 10.845 -1.819 21.271 -5.172 30.986 -5.097 14.789 -13.741 27.917 -24.923 38.38 -5.561 5.209 -11.758 9.759 -18.457 13.517 -2.499 1.407 -5.067 2.702 -7.701 3.877 -3.413 1.534 -6.938 2.866 -10.561 3.989 -3.689 1.145 -7.477 2.073 -11.346 2.762 -3.42 0.613 -6.893 1.047 -10.433 1.279 -2.118 0.135 -4.252 0.21 -6.407 0.21 -9.8271 0 -19.3099 -1.489 -28.2164 -4.266 -2.2303 -0.689 -4.4158 -1.46 -6.5713 -2.305 -13.4271 -5.284 -25.3648 -13.54 -34.9897 -23.958C14.5651 147.534 5 124.886 5 100 5 47.5341 47.5266 5 100 5c52.473 0 95 42.5341 95 95" stroke-width="1"></path>
    <path id="Vector_2" fill="#431E16" d="M74.2012 29.4892s-3.0238 -1.7289 -1.0778 -4.4233c1.9459 -2.6944 9.4903 -15.10356 27.4006 -17.04203 17.91 -1.93847 31.719 9.81963 30.746 27.29573 0 0 14.887 1.7289 9.924 15.6425 0 0 6.908 9.8196 -6.691 14.1306 0 0 1.512 6.1522 -5.718 8.0907s-9.819 -5.9352 -9.819 -5.9352l-0.173 6.2421s-2.589 0.5987 -5.546 -3.8021c-2.956 -4.4009 -39.0458 -40.199 -39.0458 -40.199" stroke-width="1"></path>
    <path id="Vector_3" fill="#FFB04C" d="m74.7476 69.3137 -0.7634 14.7518c-0.0898 1.6915 1.2649 3.1211 2.9564 3.1211 1.7738 0 3.1509 -1.5493 2.9413 -3.3082L78.183 69.3137z" stroke-width="1"></path>
    <path id="Vector_4" fill="#A0472F" d="M138.747 186.76C126.914 192.059 113.801 195 100 195c-12.2819 0 -24.0175 -2.328 -34.7876 -6.571l18.9955 -77.36 6.9156 -28.171C63.6107 87.1118 67.076 63.2663 67.4727 60.4372c0.3967 -2.8216 2.0358 -11.7955 2.6794 -18.3443 0.6437 -6.5414 3.8171 -15.2159 3.8171 -15.2159 20.425 -10.5605 32.2728 4.0042 32.8568 4.588 0.584 0.5837 3.353 -0.6587 3.353 -0.6587 -1.243 5.6134 0.509 12.2446 0.509 12.2446 2.335 -1.8936 7.799 -0.2919 8.817 5.9052 1.025 6.1971 -6.123 10.2088 -6.123 10.2088 0.584 15.5975 5.105 12.948 5.105 12.948 0.112 2.4624 2.544 16.8176 5.785 35.0871 4.678 26.405 11.04 60.976 14.475 79.56" stroke-width="1"></path>
    <path id="Vector_5" fill="#FFF5EC" d="M138.747 186.76C126.914 192.059 113.801 195 100 195c-12.2819 0 -24.0175 -2.328 -34.7876 -6.571l18.9955 -77.36c5.1044 6.594 19.1831 19.325 40.0641 -3.869 4.678 26.405 11.04 60.976 14.475 79.56" stroke-width="1"></path>
    <path id="Vector_6" fill="#000000" d="M99.6333 126.974c-1.6166 0 -3.1883 -0.135 -4.7301 -0.412 -10.104 -1.803 -14.8941 -9.101 -14.939 -9.175l0.6287 -0.405c0.0449 0.068 4.6778 7.111 14.46 8.847 9.7371 1.729 21.0161 -2.185 33.5231 -11.638l0.449 0.598c-10.725 8.106 -20.59 12.185 -29.3917 12.185" stroke-width="1"></path>
    <path id="Vector_7" fill="#FFB04C" d="M101.609 109.857c-0.958 0 -1.9083 -0.052 -2.8513 -0.165 -9.7223 -1.152 -15.0587 -8.075 -15.1111 -8.143l0.5988 -0.449c0.0523 0.068 5.5684 6.018 14.9688 7.133 8.0908 0.958 16.4138 -2.275 25.5818 -9.7823l0.554 1.2125c-8.278 6.7808 -16.256 10.2008 -23.741 10.2008z" stroke-width="1"></path>
    <path id="Vector_8" fill="#CC9175" d="M189.828 130.985c-5.097 14.79 -13.741 27.917 -24.923 38.381 -5.561 5.209 -11.758 9.759 -18.457 13.517 -2.499 1.407 -5.066 2.701 -7.701 3.876 -3.413 1.535 -6.938 2.867 -10.561 3.99 -1.811 -39.735 -8.464 -107.3347 -8.464 -107.3347 1.818 -2.5073 12.416 6.8707 12.416 6.8707 9.258 0.5389 19.445 2.0133 32.767 5.5011 11.189 2.9264 21.817 27.4379 24.923 35.1989" stroke-width="1"></path>
    <path id="Vector_9" fill="#CC9175" d="M91.1235 85.9815 71.7837 190.734c-2.2303 -0.689 -4.4158 -1.46 -6.5713 -2.305 -13.4271 -5.284 -25.3648 -13.54 -34.9897 -23.958 3.8021 -18.24 12.2295 -51.778 23.5759 -56.867 15.7099 -7.05 23.1419 -9.2133 23.1419 -9.2133s10.0217 -12.6262 14.183 -12.4092" stroke-width="1"></path>
    <path id="Vector_10" fill="#000000" d="m66.0432 117.865 10.0217 -19.1972 0.8757 -0.2769 -9.5876 18.6141 13.1576 -1.086 -0.1347 0.756z" stroke-width="1"></path>
    <path id="Vector_11" fill="#000000" d="M73.6174 180.802c-10.1638 -14.804 -7.7913 -55.766 -7.6715 -57.473l0.0149 -0.217 20.1481 -9.977 -0.202 1.093 -19.2276 9.37c-0.1047 1.542 -0.6885 11.242 -0.217 22.364 0.6811 15.934 3.2632 27.505 7.3946 33.523l-0.247 1.317z" stroke-width="1"></path>
    <path id="Vector_12" fill="#000000" d="m52.8631 182.501 -1.1527 -0.666 0.4042 -25.253h0.7485z" stroke-width="1"></path>
    <path id="Vector_13" fill="#000000" d="m140.715 112.753 -12.476 -0.119 0.112 -0.704 11.504 0.023c-1.752 -12.679 -7.657 -21.578 -7.717 -21.6678l0.554 0.0299c0.067 0.0898 6.279 8.8691 7.963 21.9889z" stroke-width="1"></path>
    <path id="Vector_14" fill="#000000" d="M140.663 128.067h-0.748v-10.86l-17.686 -6.931 -0.142 -1.609 18.576 8.046z" stroke-width="1"></path>
    <path id="Vector_15" fill="#000000" d="m169.104 165.182 -4.566 -24.811 0.734 -0.135 4.708 24.01z" stroke-width="1"></path>
    <path id="Vector_16" fill="#FEB148" d="M164.905 169.366c-7.641 7.155 -16.473 13.068 -26.158 17.394 -9.984 4.475 -20.53 7.05 -31.988 7.813l-9.386 -60.055 18.12 -2.724 42.437 -6.377z" stroke-width="1"></path>
    <path id="Vector_17" fill="#000000" d="m87.561 52.9378 -0.5389 -0.5164s0.9131 -1.1077 1.9085 -1.7589c1.3023 -0.8607 2.9788 -1.9983 5.4936 -2.3127 2.4324 -0.3143 5.1942 0.5763 7.7988 1.5718l-0.269 0.696c-2.4853 -0.943 -4.9252 -1.2723 -7.2379 -0.973 -2.3801 0.2919 -4.2212 1.1901 -5.3439 1.8936 -1.1676 0.7335 -1.8112 1.3921 -1.8112 1.3996" stroke-width="1"></path>
    <path id="Vector_18" fill="#000000" d="M79.081 51.9051c-1.7514 -1.0778 -3.5626 -1.699 -5.3963 -1.8487 -1.916 -0.1646 -3.4653 0.2245 -4.4308 0.5838 -0.8233 0.2919 -1.2948 0.5913 -1.3023 0.5913l-0.4041 -0.6287s0.5389 -0.3368 1.4445 -0.6661c1.0254 -0.3817 2.7019 -1.0479 4.7601 -0.8682 1.9459 0.1571 3.862 1.0628 5.7106 2.2004l-0.3892 0.6362z" stroke-width="1"></path>
    <path id="Vector_19" fill="#000000" d="M80.1588 62.2935c-2.6045 0 -4.5505 -1.1901 -4.5804 -1.2125l0.3966 -0.6362c0.2021 0.1273 4.9248 3.0013 9.393 -0.9804l0.5015 0.5613c-1.9535 1.7439 -3.9743 2.2678 -5.7107 2.2678" stroke-width="1"></path>
    <path id="Vector_20" fill="#712021" d="M77.165 67.6074c0.8757 -0.5613 2.4848 -3.4802 5.0146 -2.7692 0 0 0.6287 -0.6212 1.6989 -0.3218 1.0703 0.2993 6.0699 1.9309 6.9381 1.8786 0.8682 -0.0524 -2.2453 6.3093 -6.8258 6.6686 -4.5805 0.3592 -5.7406 -4.1688 -5.7406 -4.1688s-1.9609 -0.7185 -1.0852 -1.2799z" stroke-width="1"></path>
    <path id="Vector_21" fill="#431E16" d="M95.8162 51.6654c0 1.7065 -1.4445 3.0911 -3.2183 3.0911s-3.2108 -1.3846 -3.2108 -3.0911c0 -0.0748 0 -0.1496 0.0075 -0.217 1.2574 -0.7859 3.121 -1.6541 5.4936 -1.946 0.5763 0.5614 0.928 1.3173 0.928 2.163" stroke-width="1"></path>
    <path id="Vector_22" fill="#431E16" d="M74.7999 52.0548c0 1.6241 -1.3098 2.9339 -2.9339 2.9339s-2.9264 -1.3098 -2.9264 -2.9339c0 -0.5389 0.1422 -1.0403 0.4041 -1.4744 1.0479 -0.3892 2.642 -0.7709 4.588 -0.6063 0.5389 0.5314 0.8682 1.2724 0.8682 2.0807" stroke-width="1"></path>
    <path id="Vector_23" fill="#FFB04C" d="m111.07 61.6348 -0.764 14.7518c-0.09 1.6915 1.265 3.121 2.956 3.121 1.774 0 3.151 -1.5493 2.942 -3.3081l-1.699 -14.5647z" stroke-width="1"></path>
    <path id="Vector_24" fill="#000000" d="M119.602 143.859c-0.704 0 -1.392 -0.225 -1.961 -0.659 -0.704 -0.531 -1.153 -1.302 -1.265 -2.17l-1.19 -9.139 0.741 -0.097 1.19 9.138c0.09 0.674 0.434 1.265 0.973 1.677 0.539 0.411 1.212 0.584 1.878 0.479l22.753 -3.338c1.347 -0.202 2.298 -1.46 2.126 -2.807l-1.22 -9.333 0.741 -0.097 1.22 9.333c0.224 1.751 -1.011 3.383 -2.755 3.645l-22.752 3.338c-0.157 0.022 -0.322 0.037 -0.479 0.037z" stroke-width="1"></path>
    <path id="Vector_25" fill="#CC9175" d="M146.449 182.883c-2.5 1.407 -5.067 2.702 -7.702 3.877 -6.908 3.098 -14.243 5.381 -21.907 6.751l-0.793 -1.34 6.691 -6.235 -2.335 -5.531c-5.464 0.068 -16.511 -3.959 -16.511 -3.959l1.235 7.732c-12.3494 2.537 -9.3631 -8.45 -9.3631 -8.45 -7.215 -3.121 -2.5372 -8.84 -2.5372 -8.84 -12.4092 -4.55 11.7053 -16.443 11.7053 -16.443 -4.296 -3.705 -5.134 -7.933 -2.949 -9.423 2.178 -1.497 7.627 4.873 9.438 6.152 1.812 1.273 15.231 12.776 17.469 14.805 2.23 2.02 7.881 9.685 7.881 9.685z" stroke-width="1"></path>
    <path id="Vector_26" fill="#A0472F" d="m136.771 171.664 -14.033 14.272 -2.335 -5.531c-5.464 0.068 -16.511 -3.959 -16.511 -3.959l1.235 7.732c-12.3494 2.537 -9.3631 -8.45 -9.3631 -8.45 -7.215 -3.121 -2.5372 -8.84 -2.5372 -8.84 -12.4092 -4.55 11.7053 -16.443 11.7053 -16.443 -4.296 -3.705 -5.134 -7.933 -2.949 -9.423 2.178 -1.497 7.627 4.873 9.438 6.152 1.812 1.273 15.231 12.776 17.469 14.805 2.23 2.02 7.881 9.685 7.881 9.685" stroke-width="1"></path>
    <path id="Vector_27" fill="#000000" d="M116.63 154.726c-4.116 -2.515 -10.672 -5.666 -11.698 -4.281 1.804 -2.425 10.336 2.575 12.088 3.645z" stroke-width="1"></path>
    <path id="Vector_28" fill="#000000" d="M83.4894 69.6655c-1.4595 0.1796 -4.9997 -0.3368 -5.0969 -0.3518l-0.1423 -0.4266c0.0674 0 6.8483 0.4266 12.0874 -2.5372l0.6063 0.1571c-3.4953 1.9759 -5.082 2.7318 -7.4545 3.1585" stroke-width="1"></path>
    <path id="Vector_29" fill="#431E16" d="M85.8394 44.7198c-1.6541 3.4877 3.0087 1.3697 7.5892 1.3996s9.8794 -0.4491 9.1384 -2.889 -12.8881 -6.6088 -16.7276 1.4894" stroke-width="1"></path>
    <path id="Vector_30" fill="#431E16" d="M67.757 44.2035c-0.6736 4.341 2.8441 4.3036 6.953 4.0491 2.7768 -1.1825 1.205 -3.6374 0.5389 -4.2362 -0.6661 -0.5987 -6.9455 -3.3231 -7.4919 0.1871" stroke-width="1"></path>
    <path id="Vector_31" fill="#000000" d="m114.28 54.4199 -0.673 -0.3293c2.732 -5.5385 -0.352 -7.8961 -0.487 -7.9934l0.442 -0.6062c0.037 0.0299 3.742 2.7991 0.718 8.9289" stroke-width="1"></path>
    <path id="Vector_32" fill="#000000" d="m91.2432 83.2497 -0.247 -0.711c14.6998 -5.0744 15.6798 -12.7086 15.6878 -12.7909l0.741 0.0748c-0.03 0.3294 -0.988 8.1731 -16.1893 13.4196z" stroke-width="1"></path>
    <path id="Vector_33" fill="#ffffff" d="M112.701 63.0269c2.001 0 3.623 -1.6218 3.623 -3.6224 0 -2.0007 -1.622 -3.6225 -3.623 -3.6225s-3.622 1.6218 -3.622 3.6225c0 2.0006 1.621 3.6224 3.622 3.6224" stroke-width="1"></path>
    <path id="Vector_34" fill="#000000" d="m110.022 31.6149 0.157 -0.8084c9.191 -1.4819 18.187 -9.3405 18.277 -9.4154l0.419 0.8458c-0.09 0.0748 -9.453 7.8661 -18.853 9.3854z" stroke-width="1"></path>
    <path id="Vector_35" fill="#000000" d="M118.966 67.2482c-0.045 -1.8711 -0.412 -5.0894 0.194 -5.6059 0.127 -0.1047 12.686 -10.6653 12.11 -26.3227l0.606 0.0973c0.591 16.0167 -12.102 26.6895 -12.229 26.8018 -0.255 0.3368 -0.27 3.9817 -0.21 6.1297l-0.464 -1.1002z" stroke-width="1"></path>
    <path id="Vector_36" fill="#000000" d="M141.733 51.8826c-4.565 -4.6029 -10.44 -1.7064 -10.658 -1.5493l-0.434 -0.6062c0.06 -0.0449 5.531 -3.8245 10.553 1.2424l0.539 0.9206z" stroke-width="1"></path>
    <path id="Vector_37" fill="#000000" d="M134.503 65.0926c-0.449 -5.3739 -4.573 -5.5984 -4.737 -5.6059l0.037 -0.7484c0.045 0 4.82 0.0973 5.329 6.1447z" stroke-width="1"></path>
    <path id="Vector_38" fill="#000000" d="m93.2265 166.888 -0.6436 -0.254 4.4832 -5.831 0.6137 0.427z" stroke-width="1"></path>
    <path id="Vector_39" fill="#000000" d="m95.7639 175.727 -0.6587 -0.306 3.9144 -6.078 0.6436 0.374z" stroke-width="1"></path>
  </g>
</svg>